HIERARCHY
ROOT RootJoint
{
    OFFSET   0.000000   0.000000   0.000000
    CHANNELS 6 Xposition Yposition Zposition Xrotation Yrotation Zrotation
    JOINT pelvis_lowerback
    {
        OFFSET   0.000000   0.093605   0.000000
        CHANNELS 3 Xrotation Yrotation Zrotation
        JOINT lowerback_torso
        {
            OFFSET   0.000000   0.100000   0.000000
            CHANNELS 3 Xrotation Yrotation Zrotation
            JOINT torso_head
            {
                OFFSET   0.000000   0.282350   0.000000
                CHANNELS 3 Xrotation Yrotation Zrotation
                End Site
                {
                    OFFSET   0.000000   0.192650   0.000000
                }
            }
            JOINT rTorso_Clavicle
            {
                OFFSET  -0.001000   0.157500   0.000000
                CHANNELS 3 Xrotation Yrotation Zrotation
                JOINT rShoulder
                {
                    OFFSET  -0.117647   0.000000   0.000000
                    CHANNELS 3 Xrotation Yrotation Zrotation
                    JOINT rElbow
                    {
                        OFFSET  -0.245000   0.000000   0.000000
                        CHANNELS 3 Xrotation Yrotation Zrotation
                        JOINT rWrist
                        {
                            OFFSET  -0.240000   0.000000   0.000000
                            CHANNELS 3 Xrotation Yrotation Zrotation
                            End Site
                            {
                                OFFSET  -0.116353  -0.002500   0.000000
                            }
                        }
                    }
                }
            }
            JOINT lTorso_Clavicle
            {
                OFFSET   0.001000   0.157500   0.000000
                CHANNELS 3 Xrotation Yrotation Zrotation
                JOINT lShoulder
                {
                    OFFSET   0.117647   0.000000   0.000000
                    CHANNELS 3 Xrotation Yrotation Zrotation
                    JOINT lElbow
                    {
                        OFFSET   0.245000   0.000000   0.000000
                        CHANNELS 3 Xrotation Yrotation Zrotation
                        JOINT lWrist
                        {
                            OFFSET   0.240000   0.000000   0.000000
                            CHANNELS 3 Xrotation Yrotation Zrotation
                            End Site
                            {
                                OFFSET   0.116353  -0.002500   0.000000
                            }
                        }
                    }
                }
            }
        }
    }
    JOINT rHip
    {
        OFFSET  -0.100000  -0.051395   0.000000
        CHANNELS 3 Xrotation Yrotation Zrotation
        JOINT rKnee
        {
            OFFSET   0.000000  -0.410000   0.000000
            CHANNELS 3 Xrotation Yrotation Zrotation
            JOINT rAnkle
            {
                OFFSET   0.000000  -0.390000   0.000000
                CHANNELS 3 Xrotation Yrotation Zrotation
                JOINT rToeJoint
                {
                    OFFSET   0.000000  -0.050000   0.130000
                    CHANNELS 3 Xrotation Yrotation Zrotation
                    End Site
                    {
                        OFFSET  -0.010000   0.002000   0.060000
                    }
                }
            }
        }
    }
    JOINT lHip
    {
        OFFSET   0.100000  -0.051395   0.000000
        CHANNELS 3 Xrotation Yrotation Zrotation
        JOINT lKnee
        {
            OFFSET   0.000000  -0.410000   0.000000
            CHANNELS 3 Xrotation Yrotation Zrotation
            JOINT lAnkle
            {
                OFFSET   0.000000  -0.390000   0.000000
                CHANNELS 3 Xrotation Yrotation Zrotation
                JOINT lToeJoint
                {
                    OFFSET   0.000000  -0.050000   0.130000
                    CHANNELS 3 Xrotation Yrotation Zrotation
                    End Site
                    {
                        OFFSET   0.010000   0.002000   0.060000
                    }
                }
            }
        }
    }
}
MOTION
Frames: 7
Frame Time:   0.008333
 -1.502613   0.928380   3.603811 -124.350889  44.443324  96.213776  40.857502  -6.940653  15.715704   6.176090  -9.539155   9.487266   9.778869   4.910238  -2.532064   5.658429   3.564535  -9.441626  14.980990   7.116610  45.679851   0.002411  35.801841  -0.014284   0.542419   3.430193  -3.971217  -1.897332 -29.956700  22.149008 -38.227954 -40.271888 -20.503504   0.069327 -73.218616   0.072033  -2.318594 -10.986631  13.987116 -90.658366   4.180922 -20.458289  22.403603   0.010348  -0.000110   6.146204  -9.042793  11.207202  -0.674343   0.006450  -0.001340  37.716259   4.325707  25.445183  25.943897  -0.001949  -0.008919 -20.639742  -7.744561   7.160728  -2.588052   0.001472   0.005090
 -1.500924   0.927114   3.605846 -124.931467  43.889723  96.668253  41.268157  -6.919677  16.032493   6.324044  -9.497946   9.787956   9.615389   5.098987  -2.609251   5.495233   3.632935  -9.689859  15.328586   7.419633  45.584668   0.001723  35.747045  -0.010939   0.486907   3.694634  -3.765301  -1.923632 -29.944398  22.470238 -38.041348 -40.719639 -20.243354   0.078673 -73.964273   0.083394  -2.472767 -10.996082  13.811249 -91.235777   4.318896 -20.360016  23.571437   0.002415  -0.001276   5.757005  -8.783361  11.610011  -0.564509   0.004174  -0.000855  38.248231   4.545210  25.578328  25.170125  -0.003745  -0.010129 -20.116152  -7.818655   7.309582  -2.438042   0.001197   0.004655
 -1.499268   0.925310   3.608151 -125.535010  43.371253  97.088994  41.629041  -6.905393  16.350885   6.421639  -9.459613  10.083336   9.445697   5.274430  -2.675997   5.359071   3.677033  -9.921583  15.674199   7.684017  45.493754   0.001175  35.676739  -0.008204   0.424481   3.842981  -3.534800  -1.964131 -29.900707  22.765640 -37.854012 -41.128723 -19.981477   0.084553 -74.676157   0.091047  -2.621964 -11.003449  13.603559 -91.776606   4.441167 -20.206363  24.883841  -0.005290  -0.001121   5.412245  -8.539377  11.988991  -0.398439   0.001878  -0.000306  38.713397   4.718258  25.810431  24.349526  -0.004816  -0.011164 -19.622690  -7.886402   7.450663  -2.248529   0.000885   0.004421
 -1.497642   0.923441   3.610505 -126.022561  42.850209  97.533057  41.940801  -6.907883  16.537824   6.500705  -9.434178  10.322724   9.285216   5.437603  -2.742678   5.242096   3.699384 -10.098340  16.007880   7.922862  45.426888   0.000740  35.601521  -0.006036   0.359994   3.920362  -3.306399  -1.997332 -29.843117  23.017448 -37.669295 -41.505245 -19.739618   0.087573 -75.348822   0.095190  -2.762733 -11.010187  13.397995 -92.235744   4.530357 -19.956668  26.161884  -0.011951  -0.001605   5.092371  -8.310984  12.345075  -0.238162   0.000056  -0.000017  39.248368   4.972434  26.131317  23.802332  -0.004170  -0.011664 -19.631236  -7.791111   7.521554  -6.374198   0.009539  -0.020074
 -1.496231   0.922638   3.612314 -126.242812  42.254238  97.978772  42.267154  -6.890396  16.574800   6.612188  -9.406799  10.482178   9.135815   5.588184  -2.824949   5.135359   3.714388 -10.197778  16.320746   8.143782  45.384185   0.000291  35.520155  -0.004244   0.293523   3.927095  -3.112086  -1.998686 -29.775989  23.199371 -37.483046 -41.852313 -19.539145   0.090838 -75.989835   0.098514  -2.893754 -11.017401  13.213820 -92.506673   4.535670 -19.578150  27.401546  -0.017600  -0.003933   4.792129  -8.096424  12.680211  -0.102691  -0.001198  -0.000099  39.871609   5.212662  26.205457  23.447884  -0.003487  -0.011053 -20.317173  -7.805335   7.319999  -5.839247   0.007060  -0.013315
 -1.495100   0.922402   3.613774 -126.502499  41.715843  98.519016  42.525699  -6.900121  16.649711   6.694783  -9.391539  10.633488   8.990970   5.729115  -2.902501   5.044027   3.710990 -10.297366  16.623381   8.343821  45.348536  -0.000085  35.442928  -0.002838   0.228315   3.922872  -2.897316  -1.991333 -29.704259  23.368534 -37.298184 -42.166992 -19.352056   0.094132 -76.583089   0.101626  -3.021214 -11.025410  13.037535 -92.695408   4.507349 -19.251737  28.585361  -0.021926  -0.005926   4.512716  -7.898984  12.993711   0.027132  -0.002122  -0.000250  40.391681   5.399599  26.223861  23.045357  -0.003084  -0.010854 -20.656378  -7.875662   7.191330  -5.359703   0.005178  -0.008438
 -1.494210   0.922491   3.615025 -126.814009  41.240299  99.125846  42.727188  -6.928700  16.759088   6.742566  -9.384572  10.795127   8.850999   5.861663  -2.968507   4.963948   3.696643 -10.403471  16.913352   8.524492  45.312323  -0.000377  35.370001  -0.001751   0.165421   3.916367  -2.674835  -1.990906 -29.631827  23.535090 -37.121269 -42.455604 -19.167266   0.096709 -77.131945   0.104010  -3.143856 -11.032932  12.861878 -92.819654   4.461935 -18.969943  29.710780  -0.025104  -0.007198   4.252401  -7.716739  13.286729   0.151934  -0.002788  -0.000394  40.814959   5.546219  26.225356  22.606084  -0.002876  -0.010918 -20.813872  -7.955874   7.111906  -4.916198   0.003696  -0.004722
